<?xml version="1.0" encoding="UTF-8"?>
<svg width="1600" height="1200" viewBox="0 0 1600 1200" fill="none" xmlns="http://www.w3.org/2000/svg">
  <rect width="1600" height="1200" fill="#F3F0E8"/>
  <text x="70" y="88" fill="#1F2937" font-size="40" font-weight="700">剑侠风云 V0 组件样板</text>
  <text x="70" y="126" fill="#667085" font-size="22">按钮、品质色、标签、卡片与底部导航的共用示例</text>
  <rect x="70" y="180" width="1460" height="950" rx="32" fill="#FFF9F0" stroke="#D7C5AA" stroke-width="2"/>
  <text x="110" y="240" fill="#1F2937" font-size="28" font-weight="700">颜色 Token</text>
  
    <rect x="110" y="270" width="96" height="72" rx="18" fill="#17314A"/>
    <text x="158" y="365" fill="#1F2937" font-size="18" text-anchor="middle">主背景</text>
  
    <rect x="246" y="270" width="96" height="72" rx="18" fill="#F4C56A"/>
    <text x="294" y="365" fill="#1F2937" font-size="18" text-anchor="middle">强调金</text>
  
    <rect x="382" y="270" width="96" height="72" rx="18" fill="#7FD6C2"/>
    <text x="430" y="365" fill="#1F2937" font-size="18" text-anchor="middle">辅助青</text>
  
    <rect x="518" y="270" width="96" height="72" rx="18" fill="#5CBF75"/>
    <text x="566" y="365" fill="#1F2937" font-size="18" text-anchor="middle">通关绿</text>
  
    <rect x="654" y="270" width="96" height="72" rx="18" fill="#D96B6B"/>
    <text x="702" y="365" fill="#1F2937" font-size="18" text-anchor="middle">失败红</text>
  
    <rect x="790" y="270" width="96" height="72" rx="18" fill="#9AA4B2"/>
    <text x="838" y="365" fill="#1F2937" font-size="18" text-anchor="middle">N</text>
  
    <rect x="926" y="270" width="96" height="72" rx="18" fill="#4C89D9"/>
    <text x="974" y="365" fill="#1F2937" font-size="18" text-anchor="middle">R</text>
  
    <rect x="1062" y="270" width="96" height="72" rx="18" fill="#8A63D2"/>
    <text x="1110" y="365" fill="#1F2937" font-size="18" text-anchor="middle">SR</text>
  
    <rect x="1198" y="270" width="96" height="72" rx="18" fill="#D99A3D"/>
    <text x="1246" y="365" fill="#1F2937" font-size="18" text-anchor="middle">SSR</text>

    <rect x="1334" y="270" width="96" height="72" rx="18" fill="#D94F5C"/>
    <text x="1382" y="365" fill="#1F2937" font-size="18" text-anchor="middle">UR</text>
  
  <text x="110" y="446" fill="#1F2937" font-size="28" font-weight="700">按钮样式</text>
  <g transform="translate(110,480)">
    
  <g filter="url(#shadow)">
    <rect x="0" y="0" width="220" height="88" rx="22" fill="url(#goldBtn)" stroke="#B78832" stroke-width="2"/>
  </g>
  <text x="110" y="54" fill="#1F2937" font-size="28" font-weight="700" text-anchor="middle">主按钮</text>
    
  <g filter="url(#shadow)">
    <rect x="260" y="0" width="220" height="88" rx="22" fill="#FFF8EE" stroke="#D7C5AA" stroke-width="2"/>
  </g>
  <text x="370" y="54" fill="#1F2937" font-size="28" font-weight="700" text-anchor="middle">次按钮</text>
  </g>
  <text x="110" y="686" fill="#1F2937" font-size="28" font-weight="700">卡片样式</text>
  
  <rect x="110" y="720" width="320" height="220" rx="28" fill="#FFF8EE" stroke="#D7C5AA" stroke-width="2"/>
  <rect x="134" y="742" width="92" height="40" rx="16" fill="#FFE7A8"/><text x="180" y="769" fill="#1F2937" font-size="18" font-weight="700" text-anchor="middle">章节</text>
  <text x="138" y="816" fill="#1F2937" font-size="30" font-weight="700">章节卡片</text>
  <text x="138" y="864" fill="#667085" font-size="22">展示章节标题、进度和主入口</text>
  
  <g filter="url(#shadow)">
    <rect x="470" y="720" width="320" height="260" rx="26" fill="#FFF8EE" stroke="#8A63D2" stroke-width="4"/>
  </g>
  <rect x="492" y="742" width="78" height="38" rx="14" fill="#8A63D2"/>
  <text x="531" y="768" fill="#FFFFFF" font-size="18" font-weight="700" text-anchor="middle">SR</text>
  <text x="494" y="816" fill="#1F2937" font-size="28" font-weight="700">太极真意</text>
  <rect x="494" y="838" width="86" height="34" rx="12" fill="#E8F2FF"/>
  <text x="537" y="861" fill="#1F2937" font-size="16" text-anchor="middle">武当</text>
  <rect x="590" y="838" width="86" height="34" rx="12" fill="#F3E8FF"/>
  <text x="633" y="861" fill="#1F2937" font-size="16" text-anchor="middle">内功</text>
  <text x="494" y="912" fill="#667085" font-size="20">受击后有概率回击，适合稳扎稳打</text>
  <rect x="494" y="910" width="272" height="18" rx="9" fill="#E8E1D5"/>
  <rect x="494" y="910" width="131" height="18" rx="9" fill="#8A63D2"/>
  <text x="494" y="894" fill="#667085" font-size="18">局外等级 1 / 局内 1 星</text>
  <rect x="840" y="720" width="620" height="320" rx="28" fill="#FFF8EE" stroke="#D7C5AA" stroke-width="2"/>
  <text x="872" y="780" fill="#1F2937" font-size="28" font-weight="700">底部导航样式</text>
  
  <rect x="890" y="840" width="520" height="120" rx="30" fill="#E9DFC9" stroke="#D7C5AA" stroke-width="2"/>
  
      <circle cx="960" cy="890" r="34" fill="#F4C56A" stroke="#B78832" stroke-width="2"/>
      <text x="960" y="940" fill="#1F2937" font-size="18" font-weight="700" text-anchor="middle">章节</text>
    
      <circle cx="1088" cy="890" r="34" fill="#FFFFFF" stroke="#D7C5AA" stroke-width="2"/>
      <text x="1088" y="940" fill="#1F2937" font-size="18" font-weight="500" text-anchor="middle">功法</text>
    
      <circle cx="1216" cy="890" r="34" fill="#FFFFFF" stroke="#D7C5AA" stroke-width="2"/>
      <text x="1216" y="940" fill="#98A2B3" font-size="18" font-weight="500" text-anchor="middle">角色</text>
    
      <circle cx="1344" cy="890" r="34" fill="#FFFFFF" stroke="#D7C5AA" stroke-width="2"/>
      <text x="1344" y="940" fill="#98A2B3" font-size="18" font-weight="500" text-anchor="middle">商城</text>
    
</svg>
